<?xml version="1.0" encoding="utf-8"?>
<!-- Generator: Adobe Illustrator 17.0.0, SVG Export Plug-In . SVG Version: 6.00 Build 0)  -->
<!DOCTYPE svg PUBLIC "-//W3C//DTD SVG 1.1//EN" "http://www.w3.org/Graphics/SVG/1.1/DTD/svg11.dtd">
<svg version="1.1" id="Layer_1" xmlns="http://www.w3.org/2000/svg" xmlns:xlink="http://www.w3.org/1999/xlink" x="0px" y="0px"
	 width="365.59px" height="365.857px" viewBox="1246.918 -784.366 365.59 365.857"
	 enable-background="new 1246.918 -784.366 365.59 365.857" xml:space="preserve">
<title>logo--color-black</title>
<path fill="#EA0124" d="M1605.997-705.763c-2.478-32.44-28.05-66.697-71.817-71.817c-41.676-4.875-82.207-6.371-104.466-6.504
	c-22.26,0.134-62.79,1.63-104.466,6.504c-43.768,5.12-69.339,39.377-71.817,71.817c-2.478,32.441-6.512,57.491-6.512,104.466
	c0,23.801,1.038,41.971,2.383,58.328c16.654,6.531,36.041,5.633,52.689-4.112c14.759-8.651,25.051-23.115,28.628-39.816
	c0.445-3.132,0.745-6.264,0.745-9.246V-613.5c0.016-0.002,0.032-0.003,0.047-0.005c-0.06-0.722-0.054-1.439,0.003-2.147v-4.435
	c-0.445-5.073,2.086-9.992,6.559-12.378c4.328-2.832,8.951-5.519,13.574-7.755c11.032-4.768,22.809-7.605,34.742-8.796
	c4.773-0.595,7.305,1.791,7.305,7.01v6.644v23.415v6.644c-0.017-0.002-0.034-0.004-0.05-0.005v7.374
	c-0.3,15.215,5.663,29.824,16.551,40.411c15.06,16.851,38.62,23.115,60.094,16.256c7.605-1.936,14.464-5.218,20.428-9.841
	c5.519-4.028,10.142-9.096,13.719-14.91c4.027-6.114,6.859-13.123,8.2-20.578c1.046-4.623,1.341-9.246,1.196-13.869
	c-0.3-27.137-18.937-51.443-46.525-57.557c-1.641-0.45-2.228-0.522-3.87-0.772l-1.699-0.234c-0.776-0.109-1.089-0.096-1.87-0.168
	h-57.391c0-0.012,0-0.023-0.001-0.035h-1.836h-17.807c-0.594,0.046-1.185,0.042-1.769,0h-14.505h-2.018
	c-0.594,0.046-1.185,0.042-1.769,0h-11.621h-13.115h-7.577c-0.594,0.046-1.185,0.042-1.769,0h-11.346
	c-4.359,0.336-8.547-1.76-10.892-5.446c-2.977-4.281-5.669-8.754-8.055-13.382c-4.877-10.835-7.916-22.401-9.003-34.23
	c-0.828-7.584,0.59-9.003,8.288-9.003h13.115h20.966h5.262h7.853h5.262h13.029h9.625h34.081h18.292c0,0.012,0,0.023-0.001,0.035
	h29.725c17.778-0.031,35.322,4.023,51.282,11.845c34.721,17.746,63.873,53.938,69.236,92.843c0.15,0.595,0.15,1.196,0.15,1.791
	c0.3,2.387,0.6,4.768,0.745,7.155c0.15,2.387,0.3,4.773,0.3,7.16c0.15,0.3,0.15,0.445,0.15,0.745
	c0.445,30.419-10.442,60.094-31.315,82.758c0-0.15,0-0.15-0.15-0.3c-4.623,5.073-9.391,9.546-14.614,13.719
	c-1.491,1.346-2.982,2.387-4.473,3.432c-46.074,33.251-110.641,31.31-154.629-8.5c-2.982-2.687-5.964-5.669-8.651-8.651
	c-27.689,30.494-67.237,43.907-105.285,39.548c9.136,25.672,32.549,48.588,67.708,52.701c41.676,4.875,82.206,6.371,104.466,6.504
	c22.26-0.134,62.79-1.63,104.466-6.504c43.767-5.12,69.339-39.377,71.817-71.817c2.478-32.441,6.512-57.491,6.512-104.466
	C1612.509-648.272,1608.475-673.322,1605.997-705.763z"/>
</svg>
